<svg width="441" height="500" viewBox="0 0 441 500" fill="none" xmlns="http://www.w3.org/2000/svg">
<g filter="url(#filter0_d_419_237)">
<path d="M101.358 13.6593C102.788 8.3246 108.271 5.15877 113.606 6.58819L427.43 90.6772C432.765 92.1066 435.931 97.5899 434.501 102.925L339.731 456.612C338.302 461.947 332.818 465.113 327.484 463.683L13.6593 379.594C8.32461 378.165 5.15877 372.682 6.58819 367.347L101.358 13.6593Z" fill="#EAEAEA"/>
</g>
<rect x="138.265" y="46.7656" width="262.356" height="112.017" rx="3" transform="rotate(15 138.265 46.7656)" fill="#1EA8F6"/>
<rect x="229.775" y="217.772" width="114.965" height="23.5826" rx="4" transform="rotate(15 229.775 217.772)" fill="#7579E7"/>
<rect x="219.857" y="254.788" width="114.965" height="20.6347" rx="4" transform="rotate(15 219.857 254.788)" fill="#B5BFC2"/>
<rect x="100.88" y="186.287" width="106.121" height="94.3302" rx="3" transform="rotate(15 100.88 186.287)" fill="#43455B"/>
<rect x="209.938" y="291.804" width="85.4868" height="20.6347" rx="4" transform="rotate(15 209.938 291.804)" fill="#CDD9DD"/>
<rect x="148.296" y="282.706" width="24.8653" height="7.18222" rx="2" transform="rotate(15 148.296 282.706)" fill="#5E668F"/>
<ellipse cx="114.056" cy="206.751" rx="8.1639" ry="8" transform="rotate(16.381 114.056 206.751)" fill="#7BABC7"/>
<path d="M316.656 368.132C315.589 368.521 314.718 369.451 313.662 371.322C312.399 373.56 309.373 379.042 305.431 386.243C299.639 396.797 296.809 401.835 293.771 406.961L293.259 407.836L282.688 409.815C276.863 410.907 268.948 412.399 265.083 413.135C261.218 413.87 257.004 414.638 255.709 414.843C251.974 415.438 250.319 415.924 249.231 416.725C248.164 417.525 247.706 419.147 248.196 420.433C248.621 421.547 248.142 421.017 257.679 431.073C265.671 439.507 273.357 447.563 275.545 449.801C276.732 451.001 277.886 452.288 278.137 452.655C278.572 453.293 278.583 453.347 278.583 454.212C278.583 454.731 278.442 455.942 278.256 457.024C278.071 458.073 277.603 461.37 277.211 464.355C275.916 474.346 275.121 480.563 274.609 484.65C274.337 486.878 273.956 489.819 273.771 491.192C273.248 495.031 273.292 497.28 273.912 498.502C274.195 499.075 274.892 499.648 275.545 499.831C276.819 500.21 277.658 500.004 280.38 498.664C281.523 498.101 284.658 496.62 287.347 495.377C290.048 494.133 296.068 491.322 300.739 489.138C305.41 486.953 309.993 484.802 310.919 484.369C311.844 483.937 313.423 483.169 314.424 482.661C316.428 481.644 317.266 481.352 317.897 481.439C318.442 481.515 319.269 481.893 320.989 482.866C322.514 483.731 324.038 484.456 336.286 490.078C347.413 495.193 353.532 498.037 355.067 498.793C356.874 499.691 357.604 499.929 358.605 499.94C360.565 499.94 361.621 498.815 361.861 496.469C362.002 495.074 361.839 493.268 361.218 489.624C361.11 488.943 360.663 485.613 360.239 482.217C359.825 478.822 359.106 473.113 358.66 469.512C357.865 463.1 356.7 454.277 356.58 453.704C356.526 453.445 356.798 453.12 359.106 450.623C362.318 447.162 364.681 444.654 371.126 437.831C373.913 434.89 377.604 430.965 379.335 429.127C381.066 427.278 383.222 425.007 384.104 424.066C386.085 421.969 386.532 421.417 386.924 420.585C387.816 418.703 387.152 417.189 385.029 416.205C383.853 415.665 382.873 415.427 379.879 414.919C378.508 414.681 375.622 414.151 373.467 413.729C371.311 413.318 366.76 412.464 363.341 411.826C345.443 408.518 341.991 407.858 341.871 407.739C341.697 407.566 339.411 403.49 330.973 388.309C326.999 381.14 323.526 374.912 323.276 374.468C323.025 374.025 322.394 372.825 321.871 371.808C320.674 369.484 320.206 368.878 319.258 368.413C318.409 367.991 317.331 367.883 316.656 368.132Z" fill="#FFE81E"/>
<defs>
<filter id="filter0_d_419_237" x="0.244995" y="0.245117" width="440.6" height="469.781" filterUnits="userSpaceOnUse" color-interpolation-filters="sRGB">
<feFlood flood-opacity="0" result="BackgroundImageFix"/>
<feColorMatrix in="SourceAlpha" type="matrix" values="0 0 0 0 0 0 0 0 0 0 0 0 0 0 0 0 0 0 127 0" result="hardAlpha"/>
<feOffset/>
<feGaussianBlur stdDeviation="3"/>
<feComposite in2="hardAlpha" operator="out"/>
<feColorMatrix type="matrix" values="0 0 0 0 0 0 0 0 0 0 0 0 0 0 0 0 0 0 0.25 0"/>
<feBlend mode="normal" in2="BackgroundImageFix" result="effect1_dropShadow_419_237"/>
<feBlend mode="normal" in="SourceGraphic" in2="effect1_dropShadow_419_237" result="shape"/>
</filter>
</defs>
</svg>
