<svg width="441" height="471" viewBox="0 0 441 471" fill="none" xmlns="http://www.w3.org/2000/svg">
<g filter="url(#filter0_d_256_657)">
<path d="M101.358 13.6593C102.788 8.3246 108.271 5.15877 113.606 6.58819L427.43 90.6772C432.765 92.1066 435.931 97.5899 434.501 102.925L339.731 456.612C338.302 461.947 332.818 465.113 327.484 463.683L13.6592 379.594C8.32458 378.165 5.15874 372.682 6.58816 367.347L101.358 13.6593Z" fill="#EAEAEA"/>
</g>
<rect x="138.265" y="46.7656" width="262.356" height="112.017" rx="3" transform="rotate(15 138.265 46.7656)" fill="#1EA8F6"/>
<rect x="229.775" y="217.772" width="114.965" height="23.5826" rx="4" transform="rotate(15 229.775 217.772)" fill="#7579E7"/>
<rect x="219.857" y="254.788" width="114.965" height="20.6347" rx="4" transform="rotate(15 219.857 254.788)" fill="#B5BFC2"/>
<rect x="100.88" y="186.287" width="106.121" height="94.3302" rx="3" transform="rotate(15 100.88 186.287)" fill="#43455B"/>
<rect x="209.938" y="291.804" width="85.4868" height="20.6347" rx="4" transform="rotate(15 209.938 291.804)" fill="#CDD9DD"/>
<rect x="148.296" y="282.706" width="24.8653" height="7.18222" rx="2" transform="rotate(15 148.296 282.706)" fill="#5E668F"/>
<ellipse cx="114.056" cy="206.751" rx="8.1639" ry="8" transform="rotate(16.381 114.056 206.751)" fill="#7BABC7"/>
<defs>
<filter id="filter0_d_256_657" x="0.244934" y="0.245117" width="440.6" height="469.781" filterUnits="userSpaceOnUse" color-interpolation-filters="sRGB">
<feFlood flood-opacity="0" result="BackgroundImageFix"/>
<feColorMatrix in="SourceAlpha" type="matrix" values="0 0 0 0 0 0 0 0 0 0 0 0 0 0 0 0 0 0 127 0" result="hardAlpha"/>
<feOffset/>
<feGaussianBlur stdDeviation="3"/>
<feComposite in2="hardAlpha" operator="out"/>
<feColorMatrix type="matrix" values="0 0 0 0 0 0 0 0 0 0 0 0 0 0 0 0 0 0 0.25 0"/>
<feBlend mode="normal" in2="BackgroundImageFix" result="effect1_dropShadow_256_657"/>
<feBlend mode="normal" in="SourceGraphic" in2="effect1_dropShadow_256_657" result="shape"/>
</filter>
</defs>
</svg>
