<svg width="164" height="164" viewBox="0 0 164 164" fill="none" xmlns="http://www.w3.org/2000/svg">
<g filter="url(#filter0_d_319_141)">
<path d="M97.2783 26.8775C112.004 30.8232 124.559 40.4571 132.182 53.6599C139.804 66.8626 141.87 82.5524 137.924 97.2783C133.978 112.004 124.345 124.559 111.142 132.182C97.939 139.804 82.2493 141.87 67.5234 137.924C52.7975 133.978 40.2425 124.345 32.6199 111.142C24.9974 97.939 22.9316 82.2493 26.8774 67.5234C30.8232 52.7975 40.4571 40.2425 53.6598 32.6199C66.8625 24.9973 82.5524 22.9317 97.2783 26.8775ZM94.8483 35.9463C69.3353 29.1101 43.0171 44.3049 36.1313 70.003C33.5023 79.7669 34.0177 90.1111 37.6042 99.5655C41.1907 109.02 47.6659 117.103 56.1092 122.666C56.2419 122.724 56.3768 122.777 56.5135 122.824C58.3672 123.42 59.4149 122.322 59.715 121.203L61.7681 113.282C48.1537 112.64 47.8557 102.869 47.8557 102.869C47.1932 96.9395 44.5397 94.7012 44.5397 94.7012C41.1121 90.6882 45.6131 91.9538 45.6131 91.9538C48.9263 93.0992 50.4883 96.1166 51.0987 97.6884L51.4171 98.6468C53.6425 106.85 60.8902 106.6 63.8451 106.123C65.0765 103.229 66.8091 101.501 68.4448 100.69C58.4879 96.7623 48.7574 89.8803 53.5281 72.0756C54.8869 67.0047 57.8023 63.3422 61.6363 60.8784L61.5695 60.0174C61.4806 57.9802 61.7944 53.5515 65.3851 48.7015L65.7726 48.7359C66.9597 48.8953 70.8761 49.9745 76.832 56.8766C80.8813 56.8557 84.9153 57.3729 88.8279 58.4147C92.7558 59.4871 96.5777 61.0666 99.9921 63.0923C110.441 59.4453 113.986 61.7242 113.986 61.7242C114.788 68.8024 111.932 73.0953 111.151 74.1559C113.245 78.1884 113.917 82.8218 112.559 87.8927C107.773 105.753 95.9039 106.778 85.2877 105.163C86.569 107.044 87.2883 110.281 86.1279 114.612L82.6555 127.349C82.3331 128.552 82.7429 130.17 85.0373 130.418C95.131 129.821 104.78 126.058 112.614 119.664C120.447 113.27 126.065 104.569 128.67 94.7988C135.556 69.1007 120.361 42.7824 94.8483 35.9463Z" fill="white"/>
</g>
<defs>
<filter id="filter0_d_319_141" x="0.918617" y="0.918457" width="162.964" height="162.965" filterUnits="userSpaceOnUse" color-interpolation-filters="sRGB">
<feFlood flood-opacity="0" result="BackgroundImageFix"/>
<feColorMatrix in="SourceAlpha" type="matrix" values="0 0 0 0 0 0 0 0 0 0 0 0 0 0 0 0 0 0 127 0" result="hardAlpha"/>
<feOffset/>
<feGaussianBlur stdDeviation="12"/>
<feComposite in2="hardAlpha" operator="out"/>
<feColorMatrix type="matrix" values="0 0 0 0 1 0 0 0 0 1 0 0 0 0 1 0 0 0 0.25 0"/>
<feBlend mode="normal" in2="BackgroundImageFix" result="effect1_dropShadow_319_141"/>
<feBlend mode="normal" in="SourceGraphic" in2="effect1_dropShadow_319_141" result="shape"/>
</filter>
</defs>
</svg>
