<svg width="52" height="52" viewBox="0 0 52 52" fill="none" xmlns="http://www.w3.org/2000/svg">
<path fill-rule="evenodd" clip-rule="evenodd" d="M22 26.6372C22 29.451 24.8283 31.3853 27.4506 30.3649L36.8996 26.6879C38.9584 25.8867 39.9778 23.5683 39.1767 21.5096C38.3756 19.4508 36.0571 18.4313 33.9984 19.2325L30 20.7884V4C30 1.79086 28.2091 0 26 0C20.5667 0 15.27 1.70211 10.8538 4.86725C6.43763 8.0324 3.124 12.5015 1.37841 17.6467C-0.367184 22.7919 -0.45705 28.3547 1.12143 33.5536C2.69991 38.7525 5.86744 43.3264 10.179 46.6326C14.491 49.9387 19.73 51.811 25.1602 51.9864C30.5902 52.1622 35.9394 50.6321 40.4555 47.6112C44.972 44.59 48.4281 40.2304 50.3389 35.1442C52.2498 30.0577 52.5194 24.5006 51.1093 19.2537C50.536 17.1202 48.3417 15.8555 46.2083 16.4289C44.0748 17.0022 42.8101 19.1965 43.3835 21.33C44.3596 24.9621 44.1729 28.8092 42.8499 32.3308C41.5271 35.852 39.1345 38.87 36.0076 40.9617C32.8811 43.053 29.178 44.1123 25.4188 43.9906C21.6592 43.8691 18.0321 42.5729 15.0469 40.2841C12.0621 37.9953 9.86918 34.8287 8.77638 31.2295C7.68358 27.6302 7.7458 23.779 8.95429 20.2169C10.1628 16.6549 12.4568 13.5609 15.5142 11.3696C17.1917 10.1673 19.0529 9.2699 21.0124 8.7048L22 8.45007V26.6372Z" fill="#FFE81E"/>
</svg>
