<svg width="25" height="22" viewBox="0 0 25 22" fill="none" xmlns="http://www.w3.org/2000/svg">
<path d="M19 19C19 15 19 14 19 14" stroke="black" stroke-width="2" stroke-linecap="round" stroke-linejoin="round"/>
<path d="M14 3H3C1.89543 3 1 3.89543 1 5V19C1 20.1046 1.89543 21 3 21H17C18.1046 21 19 20.1046 19 19" stroke="black" stroke-width="2" stroke-linecap="round" stroke-linejoin="round"/>
<path d="M21.0779 1.50136C21.2368 1.34241 21.4255 1.21632 21.6332 1.1303C21.8409 1.04428 22.0635 1 22.2883 1C22.513 1 22.7356 1.04428 22.9433 1.1303C23.151 1.21632 23.3397 1.34241 23.4986 1.50136C23.6576 1.66031 23.7837 1.84901 23.8697 2.05669C23.9557 2.26436 24 2.48695 24 2.71174C24 2.93653 23.9557 3.15912 23.8697 3.3668C23.7837 3.57447 23.6576 3.76317 23.4986 3.92212L15.3286 12.0922L12 13L12.9078 9.67145L21.0779 1.50136Z" stroke="black" stroke-width="1.5" stroke-linecap="round" stroke-linejoin="round"/>
</svg>
