<svg width="23" height="24" viewBox="0 0 23 24" fill="none" xmlns="http://www.w3.org/2000/svg">
<path d="M20.8436 20.6894L15.4155 15.0254C16.7198 13.3914 17.3702 11.2956 17.2314 9.17394C17.0926 7.05231 16.1753 5.06819 14.6703 3.63433C13.1652 2.20048 11.1884 1.42728 9.15094 1.4756C7.1135 1.52391 5.17234 2.39001 3.73128 3.89372C2.29022 5.39743 1.46021 7.42299 1.41391 9.54901C1.36761 11.675 2.10859 13.7378 3.4827 15.3083C4.85681 16.8788 6.75826 17.836 8.7915 17.9808C10.8247 18.1257 12.8332 17.447 14.3991 16.0859L19.8272 21.75L20.8436 20.6894ZM2.8748 9.75001C2.8748 8.41498 3.25419 7.10994 3.96499 5.99991C4.67578 4.88988 5.68606 4.02471 6.86807 3.51382C8.05008 3.00293 9.35073 2.86926 10.6055 3.12971C11.8604 3.39016 13.013 4.03303 13.9177 4.97704C14.8223 5.92104 15.4384 7.12377 15.688 8.43315C15.9376 9.74252 15.8095 11.0997 15.3199 12.3331C14.8303 13.5665 14.0012 14.6207 12.9374 15.3624C11.8736 16.1041 10.623 16.5 9.34355 16.5C7.62852 16.498 5.98427 15.7862 4.77156 14.5208C3.55884 13.2553 2.87671 11.5396 2.8748 9.75001V9.75001Z" fill="white"/>
</svg>
